<svg class="ldi-2yncid" width="200px"  height="200px"  xmlns="http://www.w3.org/2000/svg" xmlns:xlink="http://www.w3.org/1999/xlink" viewBox="0 0 100 100" preserveAspectRatio="xMidYMid" style="background: none;"><!--?xml version="1.0" encoding="utf-8"?--><!--Generator: Adobe Illustrator 21.0.0, SVG Export Plug-In . SVG Version: 6.00 Build 0)--><svg version="1.1" id="Layer_1" xmlns="http://www.w3.org/2000/svg" xmlns:xlink="http://www.w3.org/1999/xlink" x="0px" y="0px" viewBox="0 0 100 100" style="transform-origin: 50px 50px 0px;" xml:space="preserve"><g style="transform-origin: 50px 50px 0px;"><g fill="#93dbe9" style="fill: rgb(147, 219, 233); transform-origin: 50px 50px 0px; transform: scale(0.6);"><g style="transform-origin: 50px 50px 0px;"><g fill="#93dbe9" style="fill: rgb(147, 219, 233);"><style type="text/css" class="ld ld-slide-px-ltr" style="transform-origin: 50px 50px 0px; animation-duration: 1s; animation-delay: -1s; animation-direction: normal;">.st0{fill:#999998;} .st1{fill:#323232;} .st2{fill:#CCCCCB;} .st3{fill:#ACBD81;} .st4{fill:#849B87;}</style><g class="ld ld-slide-px-ltr" style="transform-origin: 50px 50px 0px; animation-duration: 1s; animation-delay: -0.923077s; animation-direction: normal;"><path id="XMLID_729_" class="st1" d="M78.933,50.066c0,0.499-0.2,0.998-0.601,1.365l-25.24,31.21v5.568 c0,1.612,1.916,2.455,3.104,1.365l32.803-38.144c0.4-0.367,0.601-0.866,0.601-1.365c0-0.499-0.2-0.998-0.601-1.365L56.197,10.556 c-1.188-1.089-3.104-0.247-3.104,1.365v5.568l25.24,31.21C78.733,49.067,78.933,49.567,78.933,50.066z" fill="#689cc5" style="fill: rgb(104, 156, 197);"></path></g><g class="ld ld-slide-px-ltr" style="transform-origin: 50px 50px 0px; animation-duration: 1s; animation-delay: -0.846154s; animation-direction: normal;"><path id="XMLID_728_" class="st0" d="M57.6,50.066c0,0.499-0.2,0.998-0.601,1.365l-25.24,31.21v5.568 c0,1.612,1.916,2.455,3.104,1.365l32.803-38.144c0.4-0.367,0.601-0.866,0.601-1.365c0-0.499-0.2-0.998-0.601-1.365L34.864,10.556 c-1.188-1.089-3.104-0.247-3.104,1.365v5.568l25.24,31.21C57.4,49.067,57.6,49.567,57.6,50.066z" fill="#5e6fa3" style="fill: rgb(94, 111, 163);"></path></g><g class="ld ld-slide-px-ltr" style="transform-origin: 50px 50px 0px; animation-duration: 1s; animation-delay: -0.769231s; animation-direction: normal;"><path id="XMLID_727_" class="st2" d="M36.241,50.066c0,0.499-0.2,0.998-0.601,1.365L10.4,82.641v5.568 c0,1.612,1.916,2.455,3.104,1.365l32.803-38.144c0.4-0.367,0.601-0.866,0.601-1.365c0-0.499-0.2-0.998-0.601-1.365L13.504,10.556 C12.316,9.467,10.4,10.31,10.4,11.922v5.568L35.64,48.7C36.041,49.067,36.241,49.567,36.241,50.066z" fill="#3b4368" style="fill: rgb(59, 67, 104);"></path></g><metadata xmlns:d="https://loading.io/stock/" class="ld ld-slide-px-ltr" style="transform-origin: 50px 50px 0px; animation-duration: 1s; animation-delay: -0.692308s; animation-direction: normal;">
<d:name class="ld ld-slide-px-ltr" style="transform-origin: 50px 50px 0px; animation-duration: 1s; animation-delay: -0.615385s; animation-direction: normal;">right</d:name>
<d:tags class="ld ld-slide-px-ltr" style="transform-origin: 50px 50px 0px; animation-duration: 1s; animation-delay: -0.538462s; animation-direction: normal;">east,foward,redo,next,direction,way,turn,chevron,dart,right,arrow</d:tags>
<d:license class="ld ld-slide-px-ltr" style="transform-origin: 50px 50px 0px; animation-duration: 1s; animation-delay: -0.461538s; animation-direction: normal;">cc-by</d:license>
<d:slug class="ld ld-slide-px-ltr" style="transform-origin: 50px 50px 0px; animation-duration: 1s; animation-delay: -0.384615s; animation-direction: normal;">2yncid</d:slug>
</metadata></g></g></g></g><style type="text/css" class="ld ld-slide-px-ltr" style="transform-origin: 50px 50px 0px; animation-duration: 1s; animation-delay: -0.307692s; animation-direction: normal;">path,ellipse,circle,rect,polygon,polyline,line { stroke-width: 0; }@keyframes ld-slide-px-ltr {
  0%, 100% {
    animation-timing-function: cubic-bezier(0.5, 0, 1, 0.5);
  }
  50% {
    animation-timing-function: cubic-bezier(0, 0.5, 0.5, 1);
  }
  0% {
    -webkit-transform: translate(0, 0);
    transform: translate(0, 0);
  }
  49.9% {
    -webkit-transform: translate(100px, 0);
    transform: translate(100px, 0);
  }
  50% {
    -webkit-transform: translate(-100px, 0);
    transform: translate(-100px, 0);
  }
  100% {
    -webkit-transform: translate(0, 0);
    transform: translate(0, 0);
  }
}
@-webkit-keyframes ld-slide-px-ltr {
  0%, 100% {
    animation-timing-function: cubic-bezier(0.5, 0, 1, 0.5);
  }
  50% {
    animation-timing-function: cubic-bezier(0, 0.5, 0.5, 1);
  }
  0% {
    -webkit-transform: translate(0, 0);
    transform: translate(0, 0);
  }
  49.9% {
    -webkit-transform: translate(100px, 0);
    transform: translate(100px, 0);
  }
  50% {
    -webkit-transform: translate(-100px, 0);
    transform: translate(-100px, 0);
  }
  100% {
    -webkit-transform: translate(0, 0);
    transform: translate(0, 0);
  }
}
.ld.ld-slide-px-ltr {
  -webkit-animation: ld-slide-px-ltr 1s infinite;
  animation: ld-slide-px-ltr 1s infinite;
}
</style></svg></svg>